PERFORMER "Mark Hancock"
TITLE "English Pronunciation In Use - CD1"
FILE "Mark.Hancock_2003_English.Pronunciation.In.Use_CD1.mp3" MP3
  TRACK 01 AUDIO
    TITLE "A1"
    INDEX 01 00:00:00
  TRACK 02 AUDIO
    TITLE "A2"
    INDEX 01 00:34:30
  TRACK 03 AUDIO
    TITLE "A3"
    INDEX 01 00:58:50
  TRACK 04 AUDIO
    TITLE "A4"
    INDEX 01 01:36:62
  TRACK 05 AUDIO
    TITLE "A5 a-b-c"
    INDEX 01 02:14:62
  TRACK 06 AUDIO
    TITLE "A6 a-b-c"
    INDEX 01 03:08:06
  TRACK 07 AUDIO
    TITLE "A7"
    INDEX 01 03:58:74
  TRACK 08 AUDIO
    TITLE "A8"
    INDEX 01 04:53:57
  TRACK 09 AUDIO
    TITLE "A9 a-b-c-d"
    INDEX 01 05:31:34
  TRACK 10 AUDIO
    TITLE "A10 a-b-c"
    INDEX 01 06:32:31
  TRACK 11 AUDIO
    TITLE "A11"
    INDEX 01 07:20:43
  TRACK 12 AUDIO
    TITLE "A12"
    INDEX 01 07:52:58
  TRACK 13 AUDIO
    TITLE "A13"
    INDEX 01 08:32:55
  TRACK 14 AUDIO
    TITLE "A14 a-b-c-d"
    INDEX 01 08:59:32
  TRACK 15 AUDIO
    TITLE "A15 a-b-c"
    INDEX 01 10:04:55
  TRACK 16 AUDIO
    TITLE "A16"
    INDEX 01 10:58:03
  TRACK 17 AUDIO
    TITLE "A17"
    INDEX 01 11:30:59
  TRACK 18 AUDIO
    TITLE "A18"
    INDEX 01 12:09:21
  TRACK 19 AUDIO
    TITLE "A19 a-b-c-d"
    INDEX 01 12:52:24
  TRACK 20 AUDIO
    TITLE "A20 a-b-c"
    INDEX 01 13:54:70
  TRACK 21 AUDIO
    TITLE "A21"
    INDEX 01 14:49:55
  TRACK 22 AUDIO
    TITLE "A22 a-b"
    INDEX 01 15:15:05
  TRACK 23 AUDIO
    TITLE "A23"
    INDEX 01 16:28:25
  TRACK 24 AUDIO
    TITLE "A24 a-b-c"
    INDEX 01 17:11:64
  TRACK 25 AUDIO
    TITLE "A25 a-b-c"
    INDEX 01 18:06:29
  TRACK 26 AUDIO
    TITLE "A26"
    INDEX 01 19:02:55
  TRACK 27 AUDIO
    TITLE "A27"
    INDEX 01 20:08:65
  TRACK 28 AUDIO
    TITLE "A28"
    INDEX 01 20:52:17
  TRACK 29 AUDIO
    TITLE "A29"
    INDEX 01 21:04:24
  TRACK 30 AUDIO
    TITLE "A30"
    INDEX 01 21:44:66
  TRACK 31 AUDIO
    TITLE "A31"
    INDEX 01 22:17:57
  TRACK 32 AUDIO
    TITLE "A32"
    INDEX 01 22:35:41
  TRACK 33 AUDIO
    TITLE "A33"
    INDEX 01 23:09:71
  TRACK 34 AUDIO
    TITLE "A34"
    INDEX 01 23:40:08
  TRACK 35 AUDIO
    TITLE "A35 a-b-c-d"
    INDEX 01 24:51:29
  TRACK 36 AUDIO
    TITLE "A36 a-b-c"
    INDEX 01 25:57:04
  TRACK 37 AUDIO
    TITLE "A37"
    INDEX 01 26:49:26
  TRACK 38 AUDIO
    TITLE "A38"
    INDEX 01 27:25:37
  TRACK 39 AUDIO
    TITLE "A39 a-b-c-d"
    INDEX 01 28:09:36
  TRACK 40 AUDIO
    TITLE "A40 a-b-c"
    INDEX 01 29:14:17
  TRACK 41 AUDIO
    TITLE "A41"
    INDEX 01 30:11:05
  TRACK 42 AUDIO
    TITLE "A42"
    INDEX 01 30:47:26
  TRACK 43 AUDIO
    TITLE "A43"
    INDEX 01 31:11:01
  TRACK 44 AUDIO
    TITLE "A44 a-b-c"
    INDEX 01 31:40:22
  TRACK 45 AUDIO
    TITLE "A45 a-b-c"
    INDEX 01 32:26:43
  TRACK 46 AUDIO
    TITLE "A46 a-b-c"
    INDEX 01 33:14:55
  TRACK 47 AUDIO
    TITLE "A47"
    INDEX 01 34:05:40
  TRACK 48 AUDIO
    TITLE "A48 a-b-c"
    INDEX 01 34:50:46
  TRACK 49 AUDIO
    TITLE "A49 a-b-c"
    INDEX 01 35:50:56
  TRACK 50 AUDIO
    TITLE "A50"
    INDEX 01 36:51:08
  TRACK 51 AUDIO
    TITLE "A51"
    INDEX 01 37:16:53
  TRACK 52 AUDIO
    TITLE "A52 a-b-c"
    INDEX 01 37:49:36
  TRACK 53 AUDIO
    TITLE "A53 a-b-c-d"
    INDEX 01 38:46:37
  TRACK 54 AUDIO
    TITLE "A54 a-b-c"
    INDEX 01 40:00:57
  TRACK 55 AUDIO
    TITLE "A55"
    INDEX 01 40:59:20
  TRACK 56 AUDIO
    TITLE "A56"
    INDEX 01 41:40:50
  TRACK 57 AUDIO
    TITLE "A57"
    INDEX 01 42:35:02
  TRACK 58 AUDIO
    TITLE "A58 a-b-c"
    INDEX 01 43:21:06
  TRACK 59 AUDIO
    TITLE "A59 a-b-c"
    INDEX 01 44:18:60
  TRACK 60 AUDIO
    TITLE "A60"
    INDEX 01 45:19:32
  TRACK 61 AUDIO
    TITLE "A61"
    INDEX 01 45:59:74
  TRACK 62 AUDIO
    TITLE "A62 a-b-c"
    INDEX 01 46:39:32
  TRACK 63 AUDIO
    TITLE "A63"
    INDEX 01 47:41:01
  TRACK 64 AUDIO
    TITLE "A64 a-b-c"
    INDEX 01 48:18:33
  TRACK 65 AUDIO
    TITLE "A65"
    INDEX 01 49:16:52
  TRACK 66 AUDIO
    TITLE "A66"
    INDEX 01 49:31:53
  TRACK 67 AUDIO
    TITLE "A67"
    INDEX 01 50:13:31
  TRACK 68 AUDIO
    TITLE "A68"
    INDEX 01 50:52:38
  TRACK 69 AUDIO
    TITLE "A69 a-b-c"
    INDEX 01 51:40:21
  TRACK 70 AUDIO
    TITLE "A70 a-b-c"
    INDEX 01 52:37:34
  TRACK 71 AUDIO
    TITLE "A71 a-b-c"
    INDEX 01 53:31:53
  TRACK 72 AUDIO
    TITLE "A72"
    INDEX 01 54:28:56
  TRACK 73 AUDIO
    TITLE "A73"
    INDEX 01 54:49:38
  TRACK 74 AUDIO
    TITLE "A74"
    INDEX 01 55:21:47
  TRACK 75 AUDIO
    TITLE "A75 a-b-c"
    INDEX 01 56:00:09
  TRACK 76 AUDIO
    TITLE "A76 a-b-c"
    INDEX 01 57:02:16
  TRACK 77 AUDIO
    TITLE "A77"
    INDEX 01 57:56:45
  TRACK 78 AUDIO
    TITLE "A78"
    INDEX 01 58:54:22
  TRACK 79 AUDIO
    TITLE "A79"
    INDEX 01 59:39:67
  TRACK 80 AUDIO
    TITLE "A80 a-b-c-d"
    INDEX 01 60:14:73
  TRACK 81 AUDIO
    TITLE "A81 a-b-c"
    INDEX 01 61:18:41
  TRACK 82 AUDIO
    TITLE "A82"
    INDEX 01 64:34:11
  TRACK 83 AUDIO
    TITLE "A83"
    INDEX 01 64:55:73
  TRACK 84 AUDIO
    TITLE "A84 a-b-c"
    INDEX 01 65:39:68
  TRACK 85 AUDIO
    TITLE "A85 a-b-c"
    INDEX 01 66:26:50
  TRACK 86 AUDIO
    TITLE "A86 a-b-c"
    INDEX 01 67:06:59
  TRACK 87 AUDIO
    TITLE "A87"
    INDEX 01 67:55:43
  TRACK 88 AUDIO
    TITLE "A88"
    INDEX 01 68:21:05
  TRACK 89 AUDIO
    TITLE "A89"
    INDEX 01 69:01:49
  TRACK 90 AUDIO
    TITLE "A90 a-b-c"
    INDEX 01 70:01:06
  TRACK 91 AUDIO
    TITLE "A91 a-b-c"
    INDEX 01 70:58:72
  TRACK 92 AUDIO
    TITLE "A92"
    INDEX 01 71:56:16
  TRACK 93 AUDIO
    TITLE "A93"
    INDEX 01 72:27:24
  TRACK 94 AUDIO
    TITLE "A94"
    INDEX 01 73:23:08
  TRACK 95 AUDIO
    TITLE "A95 a-b-c"
    INDEX 01 74:22:71
  TRACK 96 AUDIO
    TITLE "A96 a-b-c"
    INDEX 01 75:15:61
  TRACK 97 AUDIO
    TITLE "A97"
    INDEX 01 76:10:07
  TRACK 98 AUDIO
    TITLE "A98"
    INDEX 01 76:23:15
  TRACK 99 AUDIO
    TITLE "A99"
    INDEX 01 76:43:53
